HIERARCHY
ROOT Hips
{
	OFFSET 0.000000 0.000000 0.000000
	CHANNELS 6 Xposition Yposition Zposition Xrotation Yrotation Zrotation
	JOINT LeftUpLeg_virtual
	{
		OFFSET 0.000000 0.000000 0.000000
		CHANNELS 3 Xrotation Yrotation Zrotation
		JOINT LeftUpLeg
		{
			OFFSET 15.427100 -6.655098 0.678600
			CHANNELS 3 Xrotation Yrotation Zrotation
			JOINT LeftLeg
			{
				OFFSET 4.081073 -39.591068 13.024000
				CHANNELS 3 Xrotation Yrotation Zrotation
				JOINT LeftFoot
				{
					OFFSET -4.081074 -37.707932 -15.979700
					CHANNELS 3 Xrotation Yrotation Zrotation
					JOINT LeftToeBase
					{
						OFFSET 5.346399 -15.068900 20.645000
						CHANNELS 3 Xrotation Yrotation Zrotation
						JOINT LeftToe_End
						{
							OFFSET 2.754700 0.931300 11.300900
							CHANNELS 3 Xrotation Yrotation Zrotation
							End Site
							{
								OFFSET 0 0 0
							}
						}
					}
				}
			}
		}
	}
	JOINT RightUpLeg_virtual
	{
		OFFSET 0.000000 0.000000 0.000000
		CHANNELS 3 Xrotation Yrotation Zrotation
		JOINT RightUpLeg
		{
			OFFSET -15.569500 -6.655098 0.678600
			CHANNELS 3 Xrotation Yrotation Zrotation
			JOINT RightLeg
			{
				OFFSET -4.081825 -39.591045 13.023800
				CHANNELS 3 Xrotation Yrotation Zrotation
				JOINT RightFoot
				{
					OFFSET 4.081824 -37.707954 -15.979600
					CHANNELS 3 Xrotation Yrotation Zrotation
					JOINT RightToeBase
					{
						OFFSET -5.346400 -15.068900 20.645000
						CHANNELS 3 Xrotation Yrotation Zrotation
						JOINT RightToe_End
						{
							OFFSET -2.754700 0.931300 11.300900
							CHANNELS 3 Xrotation Yrotation Zrotation
							End Site
							{
								OFFSET 0 0 0
							}
						}
					}
				}
			}
		}
	}
	JOINT Spine_virtual
	{
		OFFSET 0.000000 0.000000 0.000000
		CHANNELS 3 Xrotation Yrotation Zrotation
		JOINT Spine
		{
			OFFSET -0.279200 12.230698 -2.892100
			CHANNELS 3 Xrotation Yrotation Zrotation
			JOINT Spine1
			{
				OFFSET -0.232667 10.192268 -1.242267
				CHANNELS 3 Xrotation Yrotation Zrotation
				JOINT Spine1_split
				{
					OFFSET -0.232667 10.192268 -1.242267
					CHANNELS 3 Xrotation Yrotation Zrotation
					JOINT Spine2
					{
						OFFSET -0.232667 10.192268 -1.242267
						CHANNELS 3 Xrotation Yrotation Zrotation
						JOINT Neck_virtual
						{
							OFFSET 0.000000 0.000000 0.000000
							CHANNELS 3 Xrotation Yrotation Zrotation
							JOINT Neck
							{
								OFFSET -0.418800 17.814194 8.416900
								CHANNELS 3 Xrotation Yrotation Zrotation
								JOINT Head
								{
									OFFSET 0.000000 7.031097 3.806800
									CHANNELS 3 Xrotation Yrotation Zrotation
									JOINT HeadTop_End
									{
										OFFSET 0.000000 24.646606 12.978600
										CHANNELS 3 Xrotation Yrotation Zrotation
										End Site
										{
											OFFSET 0 0 0
										}
									}
								}
							}
						}
						JOINT LeftShoulder_virtual
						{
							OFFSET 0.000000 0.000000 0.000000
							CHANNELS 3 Xrotation Yrotation Zrotation
							JOINT LeftShoulder
							{
								OFFSET 8.476499 7.247704 -3.868750
								CHANNELS 3 Xrotation Yrotation Zrotation
								JOINT LeftShoulder_split
								{
									OFFSET 8.476499 7.247704 -3.868750
									CHANNELS 3 Xrotation Yrotation Zrotation
									JOINT LeftArm
									{
										OFFSET 9.308998 -2.777710 0.208600
										CHANNELS 3 Xrotation Yrotation Zrotation
										JOINT LeftForeArm
										{
											OFFSET 29.972298 0.000000 0.000000
											CHANNELS 3 Xrotation Yrotation Zrotation
											JOINT LeftHand
											{
												OFFSET 26.026505 0.000000 0.000000
												CHANNELS 3 Xrotation Yrotation Zrotation
												End Site
												{
													OFFSET 0 0 0
												}
											}
										}
									}
								}
							}
						}
						JOINT RightShoulder_virtual
						{
							OFFSET 0.000000 0.000000 0.000000
							CHANNELS 3 Xrotation Yrotation Zrotation
							JOINT RightShoulder
							{
								OFFSET -7.570500 7.247704 -3.868750
								CHANNELS 3 Xrotation Yrotation Zrotation
								JOINT RightShoulder_split
								{
									OFFSET -7.570500 7.247704 -3.868750
									CHANNELS 3 Xrotation Yrotation Zrotation
									JOINT RightArm
									{
										OFFSET -9.308998 -2.777710 0.208500
										CHANNELS 3 Xrotation Yrotation Zrotation
										JOINT RightForeArm
										{
											OFFSET -29.972300 0.000000 0.000000
											CHANNELS 3 Xrotation Yrotation Zrotation
											JOINT RightHand
											{
												OFFSET -26.026505 0.000000 0.000000
												CHANNELS 3 Xrotation Yrotation Zrotation
												End Site
												{
													OFFSET 0 0 0
												}
											}
										}
									}
								}
							}
						}
					}
				}
			}
		}
	}
}
MOTION
Frames: 11
Frame Time: 0.03333333
5.222748 72.233429 -10.065601 0.000000 0.000000 0.000000 -5.329959 -36.232453 14.744138 -12.299442 32.153792 3.755793 45.378322 -2.408925 3.535275 -21.566327 18.929417 -6.698853 -0.016784 -1.172568 -1.208751 0.000000 0.000000 0.000000 -4.669507 -32.864592 14.968221 -32.164023 12.387465 -33.748429 66.043148 11.505303 -4.174826 -25.847849 -16.950805 37.248706 4.973978 5.442338 -16.283217 0.000000 0.000000 0.000000 -7.719536 -31.453697 13.528939 -2.275809 -7.596960 5.807545 3.730148 -0.244473 2.426328 0.100232 -0.498008 0.044061 0.000000 0.000000 0.000000 2.475327 2.286949 3.021099 -17.651384 18.606298 19.577737 10.468261 -22.301141 -34.666741 0.000000 0.000000 0.000000 4.595073 -0.654581 2.955274 -0.873319 -5.750330 14.912576 -7.069009 1.814825 0.052317 -26.574251 -36.118365 -27.676801 83.742723 -83.571203 78.611051 0.000000 0.000000 0.000000 3.814191 0.348322 2.911203 -2.083390 6.177566 12.235245 -5.250409 -4.278259 5.146407 37.352180 68.724824 -9.241771 -17.173443 45.446426 26.905660 0.000000 0.000000 0.000000 
6.073416 72.627930 -9.545704 0.000000 0.000000 0.000000 -4.271424 -35.236994 15.565211 -13.410323 31.815998 2.702543 44.715903 -2.405433 3.854309 -20.729330 17.849678 -6.236688 -0.116910 -0.892478 -1.834589 0.000000 0.000000 0.000000 -3.845387 -31.930178 15.705590 -33.262123 12.463116 -33.919573 65.575273 11.397222 -3.671442 -24.632635 -16.263976 36.852798 4.091839 5.481417 -16.060857 0.000000 0.000000 0.000000 -6.648902 -30.168242 14.450915 -1.906436 -7.212214 5.900882 3.631705 -0.200553 2.361146 0.112121 -0.443432 0.007616 0.000000 0.000000 0.000000 2.443868 2.353585 2.946558 -17.834220 18.344457 18.856404 10.155274 -21.799100 -34.942913 0.000000 0.000000 0.000000 4.402949 -0.489035 2.830140 -0.839079 -5.908532 14.734658 -6.258051 1.930084 -0.181661 -25.658459 -36.620367 -27.296965 108.434021 -83.517743 103.934504 0.000000 0.000000 0.000000 3.933625 0.499705 2.851830 -2.050265 5.222725 12.669578 -4.857559 -4.089887 4.681757 38.577113 69.104200 -10.636989 -16.018421 44.559348 25.571825 0.000000 0.000000 0.000000 
6.909591 73.334396 -9.108780 0.000000 0.000000 0.000000 -3.292997 -34.063492 16.286016 -14.401379 31.705909 1.639143 43.445891 -2.390868 4.036269 -19.826286 16.561052 -5.925360 0.298701 -0.636756 -2.216349 0.000000 0.000000 0.000000 -3.042954 -31.112444 16.418344 -34.598750 12.326222 -33.844673 64.619662 11.374918 -3.231771 -23.380928 -15.265031 36.020567 3.896430 5.326087 -15.782144 0.000000 0.000000 0.000000 -5.656152 -28.632839 15.243616 -1.287271 -6.880323 6.203367 3.536685 -0.129731 2.281192 0.097624 -0.469047 -0.030154 0.000000 0.000000 0.000000 2.495434 2.420916 2.862715 -18.164104 17.958656 18.161642 9.405677 -21.229075 -35.537474 0.000000 0.000000 0.000000 4.210834 -0.296745 2.679327 -0.876375 -5.775336 14.257786 -5.487761 1.978363 -0.385462 -23.683980 -36.647247 -26.845881 127.151116 -82.368455 123.317467 0.000000 0.000000 0.000000 4.039545 0.640395 2.746197 -1.956647 4.434036 12.844832 -4.602978 -3.940514 4.487255 42.288232 69.272817 -15.085291 -14.934274 43.410804 24.279002 0.000000 0.000000 0.000000 
7.692771 74.283684 -8.772484 0.000000 0.000000 0.000000 -2.424204 -32.684600 16.848048 -15.160587 31.710868 0.591641 41.660554 -2.302232 4.077369 -18.926543 15.204870 -5.562759 1.107926 -0.431097 -2.256898 0.000000 0.000000 0.000000 -2.301993 -30.230687 17.029212 -36.056026 11.937581 -33.557669 63.164531 11.380385 -2.809388 -22.192297 -14.047328 34.678838 4.541799 4.982164 -15.517789 0.000000 0.000000 0.000000 -4.770237 -26.874824 15.850267 -0.478184 -6.627372 6.586781 3.430232 -0.019227 2.196578 0.085943 -0.578780 -0.043867 0.000000 0.000000 0.000000 2.695399 2.508198 2.777261 -18.528447 17.501962 17.516799 8.176069 -20.506156 -36.314630 0.000000 0.000000 0.000000 4.029734 -0.088461 2.510925 -1.003337 -5.373135 13.574540 -4.774782 2.008911 -0.386946 -21.277679 -36.220555 -26.518829 137.109504 -81.047612 133.941321 0.000000 0.000000 0.000000 4.083715 0.747590 2.603791 -1.787978 3.819995 12.739589 -4.478525 -3.905359 4.581006 47.995507 69.255571 -21.932946 -14.019659 41.895772 23.123150 0.000000 0.000000 0.000000 
8.340839 75.344955 -8.530903 0.000000 0.000000 0.000000 -1.694064 -31.092391 17.185377 -15.714790 31.723299 -0.294167 39.578812 -2.104982 3.996886 -18.057772 13.893372 -5.076445 1.891393 -0.262196 -2.118523 0.000000 0.000000 0.000000 -1.636877 -29.053511 17.420111 -37.462864 11.376610 -33.167610 61.366634 11.545544 -2.445722 -20.829000 -12.614580 33.385350 5.124129 4.587120 -15.358150 0.000000 0.000000 0.000000 -4.079327 -24.920029 16.226682 0.445514 -6.485049 6.906624 3.336912 0.137861 2.108870 0.072475 -0.734763 -0.003379 0.000000 0.000000 0.000000 3.067533 2.627812 2.725080 -18.774165 17.112873 16.939154 6.558077 -19.678110 -37.035096 0.000000 0.000000 0.000000 3.863749 0.129146 2.341188 -1.198553 -4.796153 12.784916 -4.248314 1.998173 -0.200765 -19.255096 -35.379977 -26.534931 141.447344 -80.158212 138.872649 0.000000 0.000000 0.000000 4.061692 0.826651 2.455717 -1.547292 3.335155 12.384196 -4.399521 -3.869269 4.762997 54.653903 69.151144 -30.000817 -13.371846 39.978562 22.190257 0.000000 0.000000 0.000000 
8.868993 76.413300 -8.389427 0.000000 0.000000 0.000000 -1.146998 -29.337199 17.251956 -16.130779 31.627833 -0.957129 37.568335 -1.814459 3.903453 -17.117118 12.645562 -4.578526 1.994624 -0.109908 -1.888265 0.000000 0.000000 0.000000 -1.116112 -27.578979 17.490438 -38.612825 10.614409 -32.755750 59.494206 11.917699 -2.177729 -19.112799 -11.034183 32.574258 4.968186 4.226044 -15.372521 0.000000 0.000000 0.000000 -3.577205 -22.828821 16.352516 1.326637 -6.471865 7.052108 3.273180 0.337358 2.032536 0.060823 -0.937890 0.045917 0.000000 0.000000 0.000000 3.548800 2.779139 2.708827 -18.745951 16.812620 16.398488 4.725615 -18.915406 -37.466685 0.000000 0.000000 0.000000 3.728251 0.354998 2.208436 -1.444824 -4.123667 12.086887 -3.691574 2.056908 0.231455 -18.236602 -34.333312 -27.048101 142.477719 -79.875155 140.419236 0.000000 0.000000 0.000000 3.991752 0.891024 2.335863 -1.259564 2.933660 11.852607 -4.335304 -3.829018 4.904650 60.888029 69.298225 -37.810670 -13.045731 37.829689 21.548144 0.000000 0.000000 0.000000 
9.282186 77.386147 -8.271816 0.000000 0.000000 0.000000 -0.848173 -27.429726 17.006999 -16.500837 31.443356 -1.378249 35.988868 -1.465410 3.843479 -16.026293 11.490256 -4.186523 1.545836 0.029637 -1.786373 0.000000 0.000000 0.000000 -0.818271 -25.894255 17.211249 -39.389540 9.513904 -32.338828 57.717680 12.434403 -2.015393 -17.361041 -9.518491 32.138779 4.413310 3.862788 -15.552522 0.000000 0.000000 0.000000 -3.232055 -20.728350 16.192232 2.013744 -6.566327 6.982459 3.237362 0.557800 1.970616 0.060848 -1.073270 0.098697 0.000000 0.000000 0.000000 4.020220 2.949518 2.728502 -18.358770 16.629182 15.864060 2.795840 -18.401359 -37.388770 0.000000 0.000000 0.000000 3.628411 0.570490 2.107425 -1.675827 -3.525080 11.625626 -3.010814 2.419480 0.836417 -18.618078 -33.443417 -28.206130 140.952032 -80.292767 139.327048 0.000000 0.000000 0.000000 3.940046 0.966633 2.273923 -0.970494 2.620905 11.226253 -4.242229 -3.834737 4.962208 65.842272 69.943917 -44.454658 -13.030059 35.682404 21.182561 0.000000 0.000000 0.000000 
9.609530 78.195305 -8.199448 0.000000 0.000000 0.000000 -0.783671 -25.453209 16.480340 -17.067246 31.289571 -1.448624 35.066188 -1.091832 3.789460 -14.782539 10.412609 -4.046714 1.015140 0.177027 -1.997016 0.000000 0.000000 0.000000 -0.719533 -24.149269 16.631099 -39.716461 8.009412 -31.888367 56.037806 12.946738 -1.950025 -16.198719 -8.320495 31.620217 4.244750 3.422063 -15.824742 0.000000 0.000000 0.000000 -3.025549 -18.671574 15.772259 2.454074 -6.706033 6.708964 3.256085 0.789408 1.908309 0.051174 -1.126566 0.128832 0.000000 0.000000 0.000000 4.398069 3.121547 2.753194 -17.622713 16.510618 15.372681 0.840123 -18.188589 -36.746944 0.000000 0.000000 0.000000 3.582544 0.782522 2.020848 -1.853346 -3.097271 11.477539 -2.111949 2.893498 1.330246 -20.025918 -32.836169 -29.752997 136.196349 -81.367279 134.918503 0.000000 0.000000 0.000000 3.951117 1.079216 2.269431 -0.720606 2.366071 10.598276 -4.051416 -3.677548 4.791567 68.817906 71.326033 -49.289903 -13.314920 33.864034 21.089136 0.000000 0.000000 0.000000 
9.854615 78.816940 -8.104412 0.000000 0.000000 0.000000 -0.913988 -23.493211 15.732270 -17.805871 31.234469 -1.243509 34.717449 -0.651957 3.701223 -13.579866 9.397251 -3.985959 0.621040 0.318284 -2.346164 0.000000 0.000000 0.000000 -0.753615 -22.465833 15.863388 -39.635489 6.129157 -31.398892 54.591352 13.252041 -1.951639 -15.844198 -7.611623 30.605330 4.852763 2.894113 -16.094772 0.000000 0.000000 0.000000 -2.924459 -16.730552 15.121638 2.630530 -6.784707 6.274622 3.335102 0.999022 1.832465 0.037498 -1.086156 0.118131 0.000000 0.000000 0.000000 4.639806 3.283807 2.730577 -16.676180 16.332902 14.966676 -1.224075 -18.280361 -35.578964 0.000000 0.000000 0.000000 3.612003 0.985332 1.927872 -1.947333 -2.913455 11.685853 -1.191309 3.219669 1.651785 -21.679376 -32.588390 -31.335634 125.479126 -82.906189 124.577992 0.000000 0.000000 0.000000 4.042305 1.227703 2.302458 -0.538074 2.135512 10.017961 -3.788475 -3.400298 4.456843 68.910564 73.444744 -51.363210 -13.845447 32.687188 21.216678 0.000000 0.000000 0.000000 
9.967589 79.301437 -8.011173 0.000000 0.000000 0.000000 -1.166570 -21.561148 14.845898 -18.643170 31.270361 -0.775898 34.766954 -0.193256 3.539870 -12.553247 8.444954 -3.973758 0.631278 0.434219 -2.726390 0.000000 0.000000 0.000000 -0.898136 -20.854121 14.994051 -39.310211 4.082851 -30.885897 53.415214 13.339208 -2.021719 -15.920005 -7.331071 29.273368 5.900253 2.352529 -16.344144 0.000000 0.000000 0.000000 -2.924156 -14.837942 14.292842 2.622543 -6.694846 5.763479 3.484470 1.183520 1.720537 0.035484 -0.948051 0.103908 0.000000 0.000000 0.000000 4.789874 3.436047 2.637453 -15.680721 16.102185 14.700058 -3.605665 -18.483272 -34.044825 0.000000 0.000000 0.000000 3.714516 1.177971 1.792124 -1.949137 -2.958610 12.154256 -0.498304 3.154229 1.665692 -23.110983 -32.802151 -32.784727 103.047358 -84.276864 102.578397 0.000000 0.000000 0.000000 4.220799 1.407798 2.338350 -0.429978 1.911933 9.499393 -3.413606 -3.010929 3.984655 64.902595 75.980616 -49.419858 -14.565892 32.312624 21.520627 0.000000 0.000000 0.000000 
9.957639 79.684380 -7.994156 0.000000 0.000000 0.000000 -1.488005 -19.718599 13.885193 -19.548620 31.321257 -0.017845 35.010061 0.212113 3.288079 -11.717447 7.479875 -4.028689 0.722938 0.523207 -2.938567 0.000000 0.000000 0.000000 -1.101212 -19.252232 14.055760 -38.873134 2.156605 -30.367984 52.471883 13.399728 -2.192680 -15.988559 -7.245137 28.282357 6.582214 1.921750 -16.613542 0.000000 0.000000 0.000000 -2.988027 -12.949331 13.348286 2.522684 -6.360712 5.225520 3.714216 1.339604 1.554001 0.033240 -0.803865 0.080976 0.000000 0.000000 0.000000 4.929165 3.580915 2.445703 -14.801449 15.824326 14.605885 -6.395402 -18.611825 -32.361979 0.000000 0.000000 0.000000 3.902638 1.361903 1.598555 -1.893027 -3.184457 12.786433 -0.081480 2.879170 1.231869 -24.285019 -33.707749 -34.063458 69.757180 -84.214907 69.838117 0.000000 0.000000 0.000000 4.436657 1.590065 2.332341 -0.390245 1.628953 9.063464 -3.037569 -2.541002 3.436949 54.424119 78.525476 -40.961580 -15.420484 32.789488 21.979235 0.000000 0.000000 0.000000 
